<svg width="155" height="155" viewBox="0 0 155 155" fill="none" xmlns="http://www.w3.org/2000/svg">
<g clip-path="url(#clip0_20_18)">
<rect width="155" height="155" rx="25" fill="#1E1B4B"/>
<path d="M26.564 88.82C24.1587 88.82 22.136 88.082 20.496 86.606V96.61C20.496 97.5393 20.1407 98.3047 19.43 98.906C18.774 99.562 17.954 99.89 16.97 99.89C15.9313 99.89 15.0567 99.5893 14.346 98.988C13.6353 98.3867 13.28 97.6213 13.28 96.692V67.008C13.28 66.1333 13.608 65.3953 14.264 64.794C14.9747 64.138 15.8767 63.81 16.97 63.81C17.79 63.81 18.5007 64.0287 19.102 64.466C19.7033 64.9033 20.1133 65.45 20.332 66.106C22.1907 64.302 24.35 63.4 26.81 63.4C30.418 63.4 33.288 64.548 35.42 66.844C37.6067 69.0853 38.7 72.1467 38.7 76.028C38.7 79.9093 37.6067 83.0253 35.42 85.376C33.2333 87.672 30.2813 88.82 26.564 88.82ZM25.99 82.178C27.6847 82.178 29.024 81.604 30.008 80.456C31.0467 79.2533 31.566 77.7773 31.566 76.028C31.566 74.224 31.0467 72.7753 30.008 71.682C29.024 70.5887 27.6847 70.042 25.99 70.042C24.35 70.042 23.0107 70.5887 21.972 71.682C20.988 72.7753 20.496 74.224 20.496 76.028C20.496 77.7773 20.988 79.2533 21.972 80.456C23.0107 81.604 24.35 82.178 25.99 82.178ZM47.4016 88.82C46.3629 88.82 45.4883 88.5193 44.7776 87.918C44.0669 87.3167 43.7116 86.5513 43.7116 85.622V67.008C43.7116 66.1333 44.0396 65.3953 44.6956 64.794C45.4063 64.138 46.3083 63.81 47.4016 63.81C48.4949 63.81 49.3423 64.138 49.9436 64.794C50.5996 65.3953 50.9276 66.1607 50.9276 67.09V85.54C50.9276 86.4693 50.5723 87.262 49.8616 87.918C49.2056 88.5193 48.3856 88.82 47.4016 88.82ZM47.4016 59.71C46.2536 59.71 45.2696 59.3547 44.4496 58.644C43.6296 57.8787 43.2196 56.922 43.2196 55.774C43.2196 54.7353 43.6296 53.8333 44.4496 53.068C45.2696 52.3027 46.2536 51.92 47.4016 51.92C48.4949 51.92 49.4243 52.3027 50.1896 53.068C51.0096 53.8333 51.4196 54.7353 51.4196 55.774C51.4196 56.922 51.0096 57.8787 50.1896 58.644C49.4243 59.3547 48.4949 59.71 47.4016 59.71ZM68.0592 88.82C64.3965 88.82 61.4445 87.672 59.2032 85.376C57.0165 83.0253 55.9232 79.9093 55.9232 76.028C55.9232 72.1467 56.9892 69.0853 59.1212 66.844C61.3079 64.548 64.2052 63.4 67.8132 63.4C70.1639 63.4 72.2685 64.2473 74.1272 65.942V55.2C74.1272 54.2707 74.4552 53.5053 75.1112 52.904C75.7672 52.248 76.6145 51.92 77.6532 51.92C78.7465 51.92 79.6212 52.248 80.2772 52.904C80.9879 53.5053 81.3432 54.2433 81.3432 55.118V85.622C81.3432 86.5513 80.9879 87.3167 80.2772 87.918C79.6212 88.5193 78.7465 88.82 77.6532 88.82C75.9039 88.82 74.7832 88.0547 74.2912 86.524C72.5965 88.0547 70.5192 88.82 68.0592 88.82ZM68.6332 82.178C70.2732 82.178 71.5852 81.604 72.5692 80.456C73.6079 79.2533 74.1272 77.7773 74.1272 76.028C74.1272 74.224 73.6079 72.7753 72.5692 71.682C71.5852 70.5887 70.2732 70.042 68.6332 70.042C66.9385 70.042 65.5719 70.5887 64.5332 71.682C63.5492 72.7753 63.0572 74.224 63.0572 76.028C63.0572 77.7773 63.5492 79.2533 64.5332 80.456C65.5719 81.604 66.9385 82.178 68.6332 82.178ZM97.8444 99.89C96.3138 99.89 94.8378 99.726 93.4164 99.398C91.9951 99.1247 90.7104 98.6873 89.5624 98.086C88.2504 97.3753 87.5944 96.282 87.5944 94.806C87.5944 93.8767 87.9224 93.0567 88.5784 92.346C89.2344 91.69 89.9998 91.362 90.8744 91.362C91.5851 91.362 92.2138 91.526 92.7604 91.854C93.6351 92.346 94.5371 92.7013 95.4664 92.92C96.4504 93.1387 97.4071 93.248 98.3364 93.248C100.414 93.248 101.944 92.7833 102.928 91.854C103.967 90.9247 104.486 89.6947 104.486 88.164V86.278C102.737 87.9727 100.578 88.82 98.0084 88.82C94.3458 88.82 91.3938 87.672 89.1524 85.376C86.9658 83.0253 85.8724 79.9093 85.8724 76.028C85.8724 72.1467 86.9384 69.0853 89.0704 66.844C91.2571 64.548 94.1544 63.4 97.7624 63.4C100.386 63.4 102.655 64.4113 104.568 66.434C104.732 65.6687 105.115 65.04 105.716 64.548C106.372 64.056 107.165 63.81 108.094 63.81C109.188 63.81 110.062 64.138 110.718 64.794C111.374 65.45 111.702 66.27 111.702 67.254V88.328C111.702 91.8267 110.472 94.6147 108.012 96.692C105.607 98.824 102.218 99.89 97.8444 99.89ZM98.5824 82.178C100.222 82.178 101.534 81.604 102.518 80.456C103.557 79.2533 104.076 77.7773 104.076 76.028C104.076 74.224 103.557 72.7753 102.518 71.682C101.534 70.5887 100.222 70.042 98.5824 70.042C96.8878 70.042 95.5211 70.5887 94.4824 71.682C93.4984 72.7753 93.0064 74.224 93.0064 76.028C93.0064 77.7773 93.4984 79.2533 94.4824 80.456C95.5211 81.604 96.8878 82.178 98.5824 82.178ZM138.044 88.82C137.005 88.82 136.13 88.5193 135.42 87.918C134.764 87.3167 134.436 86.5513 134.436 85.622V75.618C134.436 73.5953 133.971 72.1467 133.042 71.272C132.167 70.3973 131.074 69.96 129.762 69.96C128.395 69.96 127.247 70.3973 126.318 71.272C125.443 72.1467 124.896 73.158 124.678 74.306V85.294C124.678 86.2233 124.322 87.016 123.612 87.672C122.956 88.2733 122.136 88.574 121.152 88.574C120.113 88.574 119.238 88.2733 118.528 87.672C117.817 87.0707 117.462 86.3053 117.462 85.376V67.008C117.462 66.1333 117.79 65.3953 118.446 64.794C119.156 64.138 120.058 63.81 121.152 63.81C122.026 63.81 122.764 64.056 123.366 64.548C123.967 64.9853 124.377 65.5593 124.596 66.27C126.072 64.3567 128.313 63.4 131.32 63.4C134.381 63.4 136.868 64.302 138.782 66.106C140.695 67.91 141.652 70.78 141.652 74.716V85.786C141.652 86.6607 141.296 87.3987 140.586 88C139.93 88.5467 139.082 88.82 138.044 88.82Z" fill="#818CF8"/>
</g>
<defs>
<clipPath id="clip0_20_18">
<rect width="155" height="155" fill="white"/>
</clipPath>
</defs>
</svg>
