<svg width="155" height="155" viewBox="0 0 155 155" fill="none" xmlns="http://www.w3.org/2000/svg">
<g clip-path="url(#clip0_20_27)">
<rect width="155" height="155" fill="white"/>
<rect width="155" height="155" rx="25" fill="#1E1B4B"/>
<path d="M12.8977 104.818V68.8182H20.0568V73.2159H20.3807C20.6989 72.5114 21.1591 71.7955 21.7614 71.0682C22.375 70.3295 23.1705 69.7159 24.1477 69.2273C25.1364 68.7273 26.3636 68.4773 27.8295 68.4773C29.7386 68.4773 31.5 68.9773 33.1136 69.9773C34.7273 70.9659 36.017 72.4602 36.983 74.4602C37.9489 76.4489 38.4318 78.9432 38.4318 81.9432C38.4318 84.8636 37.9602 87.3295 37.017 89.3409C36.0852 91.3409 34.8125 92.858 33.1989 93.892C31.5966 94.9148 29.8011 95.4261 27.8125 95.4261C26.4034 95.4261 25.2045 95.1932 24.2159 94.7273C23.2386 94.2614 22.4375 93.6761 21.8125 92.9716C21.1875 92.2557 20.7102 91.5341 20.3807 90.8068H20.1591V104.818H12.8977ZM20.0057 81.9091C20.0057 83.4659 20.2216 84.8239 20.6534 85.983C21.0852 87.142 21.7102 88.0455 22.5284 88.6932C23.3466 89.3295 24.3409 89.6477 25.5114 89.6477C26.6932 89.6477 27.6932 89.3239 28.5114 88.6761C29.3295 88.017 29.9489 87.108 30.3693 85.9489C30.8011 84.7784 31.017 83.4318 31.017 81.9091C31.017 80.3977 30.8068 79.0682 30.3864 77.9205C29.9659 76.7727 29.3466 75.875 28.5284 75.2273C27.7102 74.5795 26.7045 74.2557 25.5114 74.2557C24.3295 74.2557 23.3295 74.5682 22.5114 75.1932C21.7045 75.8182 21.0852 76.7045 20.6534 77.8523C20.2216 79 20.0057 80.3523 20.0057 81.9091ZM43.2727 95V68.8182H50.5341V95H43.2727ZM46.9205 65.4432C45.8409 65.4432 44.9148 65.0852 44.142 64.3693C43.3807 63.642 43 62.7727 43 61.7614C43 60.7614 43.3807 59.9034 44.142 59.1875C44.9148 58.4602 45.8409 58.0966 46.9205 58.0966C48 58.0966 48.9205 58.4602 49.6818 59.1875C50.4545 59.9034 50.8409 60.7614 50.8409 61.7614C50.8409 62.7727 50.4545 63.642 49.6818 64.3693C48.9205 65.0852 48 65.4432 46.9205 65.4432ZM65.9986 95.4261C64.0099 95.4261 62.2088 94.9148 60.5952 93.892C58.9929 92.858 57.7202 91.3409 56.777 89.3409C55.8452 87.3295 55.3793 84.8636 55.3793 81.9432C55.3793 78.9432 55.8622 76.4489 56.8281 74.4602C57.794 72.4602 59.0781 70.9659 60.6804 69.9773C62.294 68.9773 64.0611 68.4773 65.9815 68.4773C67.4474 68.4773 68.669 68.7273 69.6463 69.2273C70.6349 69.7159 71.4304 70.3295 72.0327 71.0682C72.6463 71.7955 73.1122 72.5114 73.4304 73.2159H73.652V60.0909H80.8963V95H73.7372V90.8068H73.4304C73.0895 91.5341 72.6065 92.2557 71.9815 92.9716C71.3679 93.6761 70.5668 94.2614 69.5781 94.7273C68.6009 95.1932 67.4077 95.4261 65.9986 95.4261ZM68.2997 89.6477C69.4702 89.6477 70.4588 89.3295 71.2656 88.6932C72.0838 88.0455 72.7088 87.142 73.1406 85.983C73.5838 84.8239 73.8054 83.4659 73.8054 81.9091C73.8054 80.3523 73.5895 79 73.1577 77.8523C72.7259 76.7045 72.1009 75.8182 71.2827 75.1932C70.4645 74.5682 69.4702 74.2557 68.2997 74.2557C67.1065 74.2557 66.1009 74.5795 65.2827 75.2273C64.4645 75.875 63.8452 76.7727 63.4247 77.9205C63.0043 79.0682 62.794 80.3977 62.794 81.9091C62.794 83.4318 63.0043 84.7784 63.4247 85.9489C63.8565 87.108 64.4759 88.017 65.2827 88.6761C66.1009 89.3239 67.1065 89.6477 68.2997 89.6477ZM98.6619 105.364C96.3097 105.364 94.2926 105.04 92.6108 104.392C90.9403 103.756 89.6108 102.886 88.6222 101.784C87.6335 100.682 86.9915 99.4432 86.696 98.0682L93.4119 97.1648C93.6165 97.6875 93.9403 98.1761 94.3835 98.6307C94.8267 99.0852 95.4119 99.4489 96.1392 99.7216C96.8778 100.006 97.7756 100.148 98.8324 100.148C100.412 100.148 101.713 99.7614 102.736 98.9886C103.77 98.2273 104.287 96.9489 104.287 95.1534V90.3636H103.98C103.662 91.0909 103.185 91.7784 102.548 92.4261C101.912 93.0739 101.094 93.6023 100.094 94.0114C99.0938 94.4205 97.9006 94.625 96.5142 94.625C94.5483 94.625 92.7585 94.1705 91.1449 93.2614C89.5426 92.3409 88.2642 90.9375 87.3097 89.0511C86.3665 87.1534 85.8949 84.7557 85.8949 81.858C85.8949 78.892 86.3778 76.4148 87.3438 74.4261C88.3097 72.4375 89.5938 70.9489 91.196 69.9602C92.8097 68.9716 94.5767 68.4773 96.4972 68.4773C97.9631 68.4773 99.1903 68.7273 100.179 69.2273C101.168 69.7159 101.963 70.3295 102.565 71.0682C103.179 71.7955 103.651 72.5114 103.98 73.2159H104.253V68.8182H111.463V95.2557C111.463 97.483 110.918 99.3466 109.827 100.847C108.736 102.347 107.224 103.472 105.293 104.222C103.372 104.983 101.162 105.364 98.6619 105.364ZM98.8153 89.1705C99.9858 89.1705 100.974 88.8807 101.781 88.3011C102.599 87.7102 103.224 86.8693 103.656 85.7784C104.099 84.6761 104.321 83.358 104.321 81.8239C104.321 80.2898 104.105 78.9602 103.673 77.8352C103.241 76.6989 102.616 75.8182 101.798 75.1932C100.98 74.5682 99.9858 74.2557 98.8153 74.2557C97.6222 74.2557 96.6165 74.5795 95.7983 75.2273C94.9801 75.8636 94.3608 76.75 93.9403 77.8864C93.5199 79.0227 93.3097 80.3352 93.3097 81.8239C93.3097 83.3352 93.5199 84.642 93.9403 85.7443C94.3722 86.8352 94.9915 87.6818 95.7983 88.2841C96.6165 88.875 97.6222 89.1705 98.8153 89.1705ZM124.503 79.8636V95H117.241V68.8182H124.162V73.4375H124.469C125.048 71.9148 126.02 70.7102 127.384 69.8239C128.747 68.9261 130.401 68.4773 132.344 68.4773C134.162 68.4773 135.747 68.875 137.099 69.6705C138.452 70.4659 139.503 71.6023 140.253 73.0795C141.003 74.5455 141.378 76.2955 141.378 78.3295V95H134.116V79.625C134.128 78.0227 133.719 76.7727 132.889 75.875C132.06 74.9659 130.918 74.5114 129.463 74.5114C128.486 74.5114 127.622 74.7216 126.872 75.142C126.134 75.5625 125.554 76.1761 125.134 76.983C124.724 77.7784 124.514 78.7386 124.503 79.8636Z" fill="#818CF8"/>
</g>
<defs>
<clipPath id="clip0_20_27">
<rect width="155" height="155" fill="white"/>
</clipPath>
</defs>
</svg>
